<mxfile host="app.diagrams.net" agent="Mozilla/5.0 (Macintosh; Intel Mac OS X 10.15; rv:136.0) Gecko/20100101 Firefox/136.0" version="26.1.0">
  <diagram id="C5RBs43oDa-KdzZeNtuy" name="Page-1">
    <mxGraphModel dx="1512" dy="2310" grid="1" gridSize="10" guides="1" tooltips="1" connect="1" arrows="1" fold="1" page="1" pageScale="1" pageWidth="827" pageHeight="1169" math="0" shadow="0">
      <root>
        <mxCell id="WIyWlLk6GJQsqaUBKTNV-0" />
        <mxCell id="WIyWlLk6GJQsqaUBKTNV-1" parent="WIyWlLk6GJQsqaUBKTNV-0" />
        <mxCell id="MYqOvBCMYpxo-4ECaS3--8" value="" style="rounded=0;html=1;jettySize=auto;orthogonalLoop=1;fontSize=11;endArrow=block;endFill=0;endSize=6;strokeWidth=2;shadow=0;labelBackgroundColor=none;edgeStyle=orthogonalEdgeStyle;" parent="WIyWlLk6GJQsqaUBKTNV-1" source="MYqOvBCMYpxo-4ECaS3--9" target="MYqOvBCMYpxo-4ECaS3--12" edge="1">
          <mxGeometry relative="1" as="geometry" />
        </mxCell>
        <mxCell id="MYqOvBCMYpxo-4ECaS3--9" value="&lt;p&gt;&lt;b&gt;&lt;font face=&quot;Helvetica&quot; style=&quot;font-size: 12px;&quot;&gt;I am planning to make my training&amp;nbsp;material&amp;nbsp;&lt;/font&gt;&lt;/b&gt;&lt;/p&gt;&lt;p&gt;&lt;b&gt;&lt;font style=&quot;font-size: 12px;&quot; face=&quot;Helvetica&quot;&gt;&lt;span style=&quot;background-color: initial;&quot;&gt;Open and FAIR&amp;nbsp;&lt;/span&gt;&lt;span style=&quot;background-color: initial;&quot;&gt;&lt;sup style=&quot;&quot;&gt;1&lt;/sup&gt;&lt;/span&gt;&lt;/font&gt;&lt;/b&gt;&lt;/p&gt;" style="rounded=1;whiteSpace=wrap;html=1;fontSize=12;glass=0;strokeWidth=1;shadow=0;fillColor=#dae8fc;strokeColor=#6c8ebf;" parent="WIyWlLk6GJQsqaUBKTNV-1" vertex="1">
          <mxGeometry x="207.5" y="-200" width="175" height="80" as="geometry" />
        </mxCell>
        <mxCell id="MYqOvBCMYpxo-4ECaS3--10" value="&lt;font color=&quot;#009900&quot;&gt;&lt;b&gt;Yes&lt;/b&gt;&lt;/font&gt;" style="rounded=0;html=1;jettySize=auto;orthogonalLoop=1;fontSize=11;endArrow=block;endFill=0;endSize=6;strokeWidth=2;shadow=0;labelBackgroundColor=none;edgeStyle=orthogonalEdgeStyle;strokeColor=#398e2e;entryX=0;entryY=0.5;entryDx=0;entryDy=0;" parent="WIyWlLk6GJQsqaUBKTNV-1" source="MYqOvBCMYpxo-4ECaS3--12" target="MYqOvBCMYpxo-4ECaS3--14" edge="1">
          <mxGeometry x="0.0062" y="20" relative="1" as="geometry">
            <mxPoint as="offset" />
            <mxPoint x="480" y="220" as="targetPoint" />
          </mxGeometry>
        </mxCell>
        <mxCell id="MYqOvBCMYpxo-4ECaS3--12" value="I follow copyright guidelines&amp;nbsp;&lt;div&gt;for training material &lt;sup&gt;2&lt;/sup&gt;&lt;/div&gt;" style="rhombus;whiteSpace=wrap;html=1;shadow=0;fontFamily=Helvetica;fontSize=12;align=center;strokeWidth=1;spacing=6;spacingTop=-4;fillColor=#d5e8d4;strokeColor=#82b366;" parent="WIyWlLk6GJQsqaUBKTNV-1" vertex="1">
          <mxGeometry x="200" y="-45" width="190" height="190" as="geometry" />
        </mxCell>
        <mxCell id="MYqOvBCMYpxo-4ECaS3--14" value="I recorded a video of the&amp;nbsp;&lt;div&gt;course as part of the training material&lt;/div&gt;" style="rhombus;whiteSpace=wrap;html=1;shadow=0;fontFamily=Helvetica;fontSize=12;align=center;strokeWidth=1;spacing=6;spacingTop=-4;fillColor=#d5e8d4;strokeColor=#82b366;" parent="WIyWlLk6GJQsqaUBKTNV-1" vertex="1">
          <mxGeometry x="450" y="-45" width="190" height="190" as="geometry" />
        </mxCell>
        <mxCell id="JqK_AGXCbZ9T-9h9DLJX-0" value="&lt;font color=&quot;#009900&quot;&gt;&lt;b&gt;Yes&lt;/b&gt;&lt;/font&gt;" style="rounded=0;html=1;jettySize=auto;orthogonalLoop=1;fontSize=11;endArrow=block;endFill=0;endSize=6;strokeWidth=2;shadow=0;labelBackgroundColor=none;edgeStyle=orthogonalEdgeStyle;strokeColor=#398e2e;exitX=0.5;exitY=0;exitDx=0;exitDy=0;" parent="WIyWlLk6GJQsqaUBKTNV-1" source="MYqOvBCMYpxo-4ECaS3--14" target="iMHzxxL7FjKLbcnllSLB-1" edge="1">
          <mxGeometry x="0.0022" y="20" relative="1" as="geometry">
            <mxPoint as="offset" />
            <mxPoint x="730" y="-190" as="targetPoint" />
            <mxPoint x="780" y="49.5" as="sourcePoint" />
          </mxGeometry>
        </mxCell>
        <mxCell id="JqK_AGXCbZ9T-9h9DLJX-1" value="I use a versioning system to implement document version control" style="rhombus;whiteSpace=wrap;html=1;shadow=0;fontFamily=Helvetica;fontSize=12;align=center;strokeWidth=1;spacing=6;spacingTop=-4;fillColor=#d5e8d4;strokeColor=#82b366;" parent="WIyWlLk6GJQsqaUBKTNV-1" vertex="1">
          <mxGeometry x="760" y="-45" width="190" height="190" as="geometry" />
        </mxCell>
        <mxCell id="JqK_AGXCbZ9T-9h9DLJX-2" value="&lt;font color=&quot;#009900&quot;&gt;&lt;b&gt;Yes&lt;/b&gt;&lt;/font&gt;" style="rounded=0;html=1;jettySize=auto;orthogonalLoop=1;fontSize=11;endArrow=block;endFill=0;endSize=6;strokeWidth=2;shadow=0;labelBackgroundColor=none;edgeStyle=orthogonalEdgeStyle;strokeColor=#398e2e;entryX=0.5;entryY=0;entryDx=0;entryDy=0;exitX=1;exitY=0.5;exitDx=0;exitDy=0;" parent="WIyWlLk6GJQsqaUBKTNV-1" source="JqK_AGXCbZ9T-9h9DLJX-1" target="JqK_AGXCbZ9T-9h9DLJX-5" edge="1">
          <mxGeometry x="0.0022" y="20" relative="1" as="geometry">
            <mxPoint as="offset" />
            <mxPoint x="1310" y="49.5" as="targetPoint" />
            <mxPoint x="1170" y="49.5" as="sourcePoint" />
          </mxGeometry>
        </mxCell>
        <mxCell id="JqK_AGXCbZ9T-9h9DLJX-5" value="&lt;span style=&quot;font-weight: 700;&quot;&gt;2. Versioning system&lt;/span&gt;" style="swimlane;fontStyle=0;childLayout=stackLayout;horizontal=1;startSize=40;horizontalStack=0;resizeParent=1;resizeParentMax=0;resizeLast=0;collapsible=1;marginBottom=0;whiteSpace=wrap;html=1;fillColor=#B3B3B3;" parent="WIyWlLk6GJQsqaUBKTNV-1" vertex="1">
          <mxGeometry x="1050" y="110" width="180" height="100" as="geometry" />
        </mxCell>
        <mxCell id="JqK_AGXCbZ9T-9h9DLJX-6" value="&lt;p style=&quot;margin-top: 0pt; margin-bottom: 0pt; margin-left: 0in; direction: ltr; unicode-bidi: embed; word-break: normal;&quot;&gt;&lt;font style=&quot;font-size: 12px;&quot; face=&quot;Helvetica&quot;&gt;&lt;span style=&quot;&quot;&gt;Check the available options adapted for&amp;nbsp;your type of Material:&amp;nbsp;&lt;/span&gt;&lt;span style=&quot;&quot;&gt;e.g. GitHub or GitLab&amp;nbsp;&lt;/span&gt;&lt;/font&gt;&lt;/p&gt;" style="text;strokeColor=none;fillColor=none;align=left;verticalAlign=middle;spacingLeft=4;spacingRight=4;overflow=hidden;points=[[0,0.5],[1,0.5]];portConstraint=eastwest;rotatable=0;whiteSpace=wrap;html=1;" parent="JqK_AGXCbZ9T-9h9DLJX-5" vertex="1">
          <mxGeometry y="40" width="180" height="60" as="geometry" />
        </mxCell>
        <mxCell id="JqK_AGXCbZ9T-9h9DLJX-10" value="I create a github page to host and deliver training" style="rhombus;whiteSpace=wrap;html=1;shadow=0;fontFamily=Helvetica;fontSize=12;align=center;strokeWidth=1;spacing=6;spacingTop=-4;fillColor=#d5e8d4;strokeColor=#82b366;" parent="WIyWlLk6GJQsqaUBKTNV-1" vertex="1">
          <mxGeometry x="785" y="235" width="190" height="190" as="geometry" />
        </mxCell>
        <mxCell id="JqK_AGXCbZ9T-9h9DLJX-9" style="edgeStyle=orthogonalEdgeStyle;rounded=0;orthogonalLoop=1;jettySize=auto;html=1;exitX=0;exitY=0.5;exitDx=0;exitDy=0;entryX=0.5;entryY=0;entryDx=0;entryDy=0;strokeWidth=2;endSize=6;" parent="WIyWlLk6GJQsqaUBKTNV-1" source="JqK_AGXCbZ9T-9h9DLJX-6" target="JqK_AGXCbZ9T-9h9DLJX-10" edge="1">
          <mxGeometry relative="1" as="geometry">
            <mxPoint x="1400" y="330" as="targetPoint" />
            <mxPoint x="1180" y="140" as="sourcePoint" />
          </mxGeometry>
        </mxCell>
        <mxCell id="JqK_AGXCbZ9T-9h9DLJX-11" value="&lt;font color=&quot;#009900&quot;&gt;&lt;b&gt;Yes&lt;/b&gt;&lt;/font&gt;" style="rounded=0;html=1;jettySize=auto;orthogonalLoop=1;fontSize=11;endArrow=block;endFill=0;endSize=6;strokeWidth=2;shadow=0;labelBackgroundColor=none;edgeStyle=orthogonalEdgeStyle;strokeColor=#398e2e;entryX=0.5;entryY=0;entryDx=0;entryDy=0;exitX=1;exitY=0.5;exitDx=0;exitDy=0;" parent="WIyWlLk6GJQsqaUBKTNV-1" source="JqK_AGXCbZ9T-9h9DLJX-10" target="JqK_AGXCbZ9T-9h9DLJX-12" edge="1">
          <mxGeometry relative="1" as="geometry">
            <mxPoint x="1540" y="420" as="targetPoint" />
            <mxPoint x="1400" y="420" as="sourcePoint" />
          </mxGeometry>
        </mxCell>
        <mxCell id="JqK_AGXCbZ9T-9h9DLJX-12" value="&lt;span style=&quot;font-weight: 700;&quot;&gt;3. Course website&amp;nbsp;&lt;/span&gt;template" style="swimlane;fontStyle=0;childLayout=stackLayout;horizontal=1;startSize=40;horizontalStack=0;resizeParent=1;resizeParentMax=0;resizeLast=0;collapsible=1;marginBottom=0;whiteSpace=wrap;html=1;fillColor=#B3B3B3;" parent="WIyWlLk6GJQsqaUBKTNV-1" vertex="1">
          <mxGeometry x="1054" y="492" width="180" height="140" as="geometry" />
        </mxCell>
        <mxCell id="JqK_AGXCbZ9T-9h9DLJX-13" value="&lt;p style=&quot;margin-top: 0pt; margin-bottom: 0pt; margin-left: 0in; direction: ltr; unicode-bidi: embed; word-break: normal;&quot;&gt;&lt;font style=&quot;&quot; face=&quot;Helvetica&quot;&gt;&lt;span style=&quot;font-size: 11px;&quot;&gt;Check the available options. For SIB this would be&lt;/span&gt;&lt;span style=&quot;font-size: 11px;&quot;&gt;:&amp;nbsp;&lt;/span&gt;&lt;span style=&quot;font-size: 12px;&quot;&gt;&lt;br&gt;&lt;a href=&quot;https://github.com/sib-swiss/course_website_template&quot;&gt;Course website template&lt;/a&gt;&amp;nbsp;&lt;/span&gt;&lt;/font&gt;&lt;/p&gt;&lt;p style=&quot;margin-top: 0pt; margin-bottom: 0pt; margin-left: 0in; direction: ltr; unicode-bidi: embed; word-break: normal;&quot;&gt;&lt;font style=&quot;font-size: 12px;&quot; face=&quot;Helvetica&quot;&gt;&lt;span style=&quot;&quot;&gt;and&lt;/span&gt;&lt;/font&gt;&lt;/p&gt;&lt;p style=&quot;margin-top: 0pt; margin-bottom: 0pt; margin-left: 0in; direction: ltr; unicode-bidi: embed; word-break: normal;&quot;&gt;&lt;font style=&quot;font-size: 12px;&quot; face=&quot;Helvetica&quot;&gt;&lt;a href=&quot;https://sib-swiss.github.io/gh-pages-training/&quot;&gt;Training for GitHub pages&lt;/a&gt;.&amp;nbsp;&lt;/font&gt;&lt;/p&gt;" style="text;strokeColor=none;fillColor=none;align=left;verticalAlign=middle;spacingLeft=4;spacingRight=4;overflow=hidden;points=[[0,0.5],[1,0.5]];portConstraint=eastwest;rotatable=0;whiteSpace=wrap;html=1;" parent="JqK_AGXCbZ9T-9h9DLJX-12" vertex="1">
          <mxGeometry y="40" width="180" height="100" as="geometry" />
        </mxCell>
        <mxCell id="JqK_AGXCbZ9T-9h9DLJX-14" style="edgeStyle=orthogonalEdgeStyle;rounded=0;orthogonalLoop=1;jettySize=auto;html=1;exitX=0;exitY=0.5;exitDx=0;exitDy=0;entryX=1;entryY=0.5;entryDx=0;entryDy=0;strokeWidth=2;endSize=6;" parent="WIyWlLk6GJQsqaUBKTNV-1" source="JqK_AGXCbZ9T-9h9DLJX-13" target="JqK_AGXCbZ9T-9h9DLJX-18" edge="1">
          <mxGeometry relative="1" as="geometry">
            <mxPoint x="1160" y="660" as="targetPoint" />
            <mxPoint x="1209" y="400" as="sourcePoint" />
          </mxGeometry>
        </mxCell>
        <mxCell id="JqK_AGXCbZ9T-9h9DLJX-17" value="&lt;span style=&quot;font-weight: 700;&quot;&gt;4. Course repository&lt;/span&gt;" style="swimlane;fontStyle=0;childLayout=stackLayout;horizontal=1;startSize=40;horizontalStack=0;resizeParent=1;resizeParentMax=0;resizeLast=0;collapsible=1;marginBottom=0;whiteSpace=wrap;html=1;fillColor=#B3B3B3;" parent="WIyWlLk6GJQsqaUBKTNV-1" vertex="1">
          <mxGeometry x="790" y="507" width="180" height="110" as="geometry" />
        </mxCell>
        <mxCell id="JqK_AGXCbZ9T-9h9DLJX-18" value="&lt;p style=&quot;margin-top: 0pt; margin-bottom: 0pt; margin-left: 0in; direction: ltr; unicode-bidi: embed; word-break: normal;&quot;&gt;&lt;font face=&quot;Helvetica&quot; style=&quot;&quot;&gt;&lt;span style=&quot;font-size: 11px;&quot;&gt;Create the repository of your course for SIB, use the &lt;a href=&quot;https://github.com/sib-swiss&quot;&gt;SIB GitHub&lt;/a&gt;&amp;nbsp; organisation.&lt;br&gt;&lt;/span&gt;&lt;/font&gt;&lt;/p&gt;" style="text;strokeColor=none;fillColor=none;align=left;verticalAlign=middle;spacingLeft=4;spacingRight=4;overflow=hidden;points=[[0,0.5],[1,0.5]];portConstraint=eastwest;rotatable=0;whiteSpace=wrap;html=1;" parent="JqK_AGXCbZ9T-9h9DLJX-17" vertex="1">
          <mxGeometry y="40" width="180" height="70" as="geometry" />
        </mxCell>
        <mxCell id="JqK_AGXCbZ9T-9h9DLJX-20" style="edgeStyle=orthogonalEdgeStyle;rounded=0;orthogonalLoop=1;jettySize=auto;html=1;exitX=-0.004;exitY=0.463;exitDx=0;exitDy=0;exitPerimeter=0;entryX=1;entryY=0.5;entryDx=0;entryDy=0;strokeWidth=2;endSize=6;" parent="WIyWlLk6GJQsqaUBKTNV-1" source="JqK_AGXCbZ9T-9h9DLJX-18" target="JqK_AGXCbZ9T-9h9DLJX-23" edge="1">
          <mxGeometry relative="1" as="geometry">
            <mxPoint x="1250" y="1100" as="targetPoint" />
            <mxPoint x="1274.9999999999998" y="1080" as="sourcePoint" />
          </mxGeometry>
        </mxCell>
        <mxCell id="JqK_AGXCbZ9T-9h9DLJX-22" value="&lt;span style=&quot;font-weight: 700;&quot;&gt;5. License&lt;/span&gt;" style="swimlane;fontStyle=0;childLayout=stackLayout;horizontal=1;startSize=40;horizontalStack=0;resizeParent=1;resizeParentMax=0;resizeLast=0;collapsible=1;marginBottom=0;whiteSpace=wrap;html=1;fillColor=#B3B3B3;" parent="WIyWlLk6GJQsqaUBKTNV-1" vertex="1">
          <mxGeometry x="485" y="504" width="180" height="110" as="geometry" />
        </mxCell>
        <mxCell id="JqK_AGXCbZ9T-9h9DLJX-23" value="&lt;p style=&quot;margin-top: 0pt; margin-bottom: 0pt; margin-left: 0in; direction: ltr; unicode-bidi: embed; word-break: normal;&quot;&gt;&lt;font style=&quot;&quot; face=&quot;Helvetica&quot;&gt;&lt;span style=&quot;font-size: 11px;&quot;&gt;Choose and assign an appropiate licens&lt;/span&gt;&lt;/font&gt;&lt;span style=&quot;background-color: initial; font-size: 11px;&quot;&gt;e&lt;/span&gt;&lt;font style=&quot;background-color: initial; font-size: 11px;&quot;&gt;&lt;sup&gt;4&lt;/sup&gt;&lt;/font&gt;&lt;span style=&quot;background-color: initial; font-size: 11px;&quot;&gt;&amp;nbsp;to the training material, we recommend to use&lt;br&gt;&lt;/span&gt;&lt;/p&gt;&lt;p style=&quot;margin-top: 0pt; margin-bottom: 0pt; margin-left: 0in; direction: ltr; unicode-bidi: embed; word-break: normal;&quot;&gt;&lt;span style=&quot;background-color: initial; font-size: 11px;&quot;&gt;CC-BY-4.0&lt;/span&gt;&lt;/p&gt;" style="text;strokeColor=none;fillColor=none;align=left;verticalAlign=middle;spacingLeft=4;spacingRight=4;overflow=hidden;points=[[0,0.5],[1,0.5]];portConstraint=eastwest;rotatable=0;whiteSpace=wrap;html=1;" parent="JqK_AGXCbZ9T-9h9DLJX-22" vertex="1">
          <mxGeometry y="40" width="180" height="70" as="geometry" />
        </mxCell>
        <mxCell id="trNDSJ3Ft7eA7PvFKsts-0" value="&lt;span style=&quot;font-weight: 700;&quot;&gt;7. Metadata&lt;/span&gt;" style="swimlane;fontStyle=0;childLayout=stackLayout;horizontal=1;startSize=40;horizontalStack=0;resizeParent=1;resizeParentMax=0;resizeLast=0;collapsible=1;marginBottom=0;whiteSpace=wrap;html=1;fillColor=#B3B3B3;" parent="WIyWlLk6GJQsqaUBKTNV-1" vertex="1">
          <mxGeometry x="200" y="690" width="180" height="130" as="geometry" />
        </mxCell>
        <mxCell id="trNDSJ3Ft7eA7PvFKsts-1" value="&lt;p style=&quot;margin-top: 0pt; margin-bottom: 0pt; margin-left: 0in; direction: ltr; unicode-bidi: embed; word-break: normal;&quot;&gt;&lt;font&gt;&lt;span style=&quot;font-size: 11px;&quot;&gt;I describe the metadata&lt;/span&gt;&lt;span style=&quot;font-size: 9.16667px; background-color: initial;&quot;&gt;&lt;sup&gt;5&lt;/sup&gt;&lt;/span&gt;&lt;span style=&quot;font-size: 11px; background-color: initial;&quot;&gt;&amp;nbsp;by describing and defining parameters that will make the training material easier to find.&lt;/span&gt;&lt;/font&gt;&lt;/p&gt;" style="text;strokeColor=none;fillColor=none;align=left;verticalAlign=middle;spacingLeft=4;spacingRight=4;overflow=hidden;points=[[0,0.5],[1,0.5]];portConstraint=eastwest;rotatable=0;whiteSpace=wrap;html=1;" parent="trNDSJ3Ft7eA7PvFKsts-0" vertex="1">
          <mxGeometry y="40" width="180" height="90" as="geometry" />
        </mxCell>
        <mxCell id="c0VgluleApERwFTGEEkZ-0" style="edgeStyle=orthogonalEdgeStyle;rounded=0;orthogonalLoop=1;jettySize=auto;html=1;entryX=1;entryY=0.5;entryDx=0;entryDy=0;strokeWidth=2;endSize=6;" parent="WIyWlLk6GJQsqaUBKTNV-1" source="JqK_AGXCbZ9T-9h9DLJX-23" target="c0VgluleApERwFTGEEkZ-16" edge="1">
          <mxGeometry relative="1" as="geometry">
            <mxPoint x="1159.65" y="1260" as="targetPoint" />
            <Array as="points" />
            <mxPoint x="1159.52" y="1180" as="sourcePoint" />
          </mxGeometry>
        </mxCell>
        <mxCell id="c0VgluleApERwFTGEEkZ-1" value="&lt;span style=&quot;font-weight: 700;&quot;&gt;8. Zenodo&lt;/span&gt;" style="swimlane;fontStyle=0;childLayout=stackLayout;horizontal=1;startSize=40;horizontalStack=0;resizeParent=1;resizeParentMax=0;resizeLast=0;collapsible=1;marginBottom=0;whiteSpace=wrap;html=1;fillColor=#B3B3B3;" parent="WIyWlLk6GJQsqaUBKTNV-1" vertex="1">
          <mxGeometry x="485" y="700" width="180" height="110" as="geometry" />
        </mxCell>
        <mxCell id="c0VgluleApERwFTGEEkZ-2" value="&lt;p style=&quot;margin-top: 0pt; margin-bottom: 0pt; margin-left: 0in; direction: ltr; unicode-bidi: embed; word-break: normal;&quot;&gt;&lt;span style=&quot;font-size: 11px;&quot;&gt;I publish my training material into Zenodo. &lt;/span&gt;&lt;span style=&quot;background-color: initial; font-size: 11px;&quot;&gt;Add a .zenodo.jason file&lt;sup style=&quot;&quot;&gt;3&lt;/sup&gt; at the root of the GitHub repository.&lt;/span&gt;&lt;/p&gt;&lt;div&gt;&lt;br&gt;&lt;/div&gt;" style="text;strokeColor=none;fillColor=none;align=left;verticalAlign=middle;spacingLeft=4;spacingRight=4;overflow=hidden;points=[[0,0.5],[1,0.5]];portConstraint=eastwest;rotatable=0;whiteSpace=wrap;html=1;" parent="c0VgluleApERwFTGEEkZ-1" vertex="1">
          <mxGeometry y="40" width="180" height="70" as="geometry" />
        </mxCell>
        <mxCell id="c0VgluleApERwFTGEEkZ-3" style="edgeStyle=orthogonalEdgeStyle;rounded=0;orthogonalLoop=1;jettySize=auto;html=1;exitX=1;exitY=0.5;exitDx=0;exitDy=0;entryX=0;entryY=0.5;entryDx=0;entryDy=0;strokeWidth=2;endSize=6;" parent="WIyWlLk6GJQsqaUBKTNV-1" source="trNDSJ3Ft7eA7PvFKsts-1" target="c0VgluleApERwFTGEEkZ-2" edge="1">
          <mxGeometry relative="1" as="geometry">
            <mxPoint x="1240.13" y="1409" as="targetPoint" />
            <mxPoint x="1240" y="1329" as="sourcePoint" />
          </mxGeometry>
        </mxCell>
        <mxCell id="c0VgluleApERwFTGEEkZ-4" value="&lt;span style=&quot;font-weight: 700;&quot;&gt;9. DOI&lt;/span&gt;" style="swimlane;fontStyle=0;childLayout=stackLayout;horizontal=1;startSize=40;horizontalStack=0;resizeParent=1;resizeParentMax=0;resizeLast=0;collapsible=1;marginBottom=0;whiteSpace=wrap;html=1;fillColor=#B3B3B3;" parent="WIyWlLk6GJQsqaUBKTNV-1" vertex="1">
          <mxGeometry x="790" y="700" width="180" height="110" as="geometry" />
        </mxCell>
        <mxCell id="c0VgluleApERwFTGEEkZ-5" value="&lt;p style=&quot;margin-top: 0pt; margin-bottom: 0pt; margin-left: 0in; direction: ltr; unicode-bidi: embed; word-break: normal;&quot;&gt;&lt;span style=&quot;font-size: 11px;&quot;&gt;I get a persistent identifier for your training material and&amp;nbsp;&lt;/span&gt;&lt;span style=&quot;font-size: 11px; background-color: initial;&quot;&gt;I link the repository to Zenodo&lt;/span&gt;&lt;/p&gt;" style="text;strokeColor=none;fillColor=none;align=left;verticalAlign=middle;spacingLeft=4;spacingRight=4;overflow=hidden;points=[[0,0.5],[1,0.5]];portConstraint=eastwest;rotatable=0;whiteSpace=wrap;html=1;" parent="c0VgluleApERwFTGEEkZ-4" vertex="1">
          <mxGeometry y="40" width="180" height="70" as="geometry" />
        </mxCell>
        <mxCell id="c0VgluleApERwFTGEEkZ-6" style="edgeStyle=orthogonalEdgeStyle;rounded=0;orthogonalLoop=1;jettySize=auto;html=1;exitX=1;exitY=0.5;exitDx=0;exitDy=0;entryX=0;entryY=0.5;entryDx=0;entryDy=0;strokeWidth=2;endSize=6;" parent="WIyWlLk6GJQsqaUBKTNV-1" source="c0VgluleApERwFTGEEkZ-2" target="c0VgluleApERwFTGEEkZ-5" edge="1">
          <mxGeometry relative="1" as="geometry">
            <mxPoint x="1535.13" y="1589" as="targetPoint" />
            <mxPoint x="1535" y="1509" as="sourcePoint" />
          </mxGeometry>
        </mxCell>
        <mxCell id="c0VgluleApERwFTGEEkZ-8" value="&lt;span style=&quot;font-weight: 700;&quot;&gt;11. TeSS&lt;/span&gt;" style="swimlane;fontStyle=0;childLayout=stackLayout;horizontal=1;startSize=40;horizontalStack=0;resizeParent=1;resizeParentMax=0;resizeLast=0;collapsible=1;marginBottom=0;whiteSpace=wrap;html=1;fillColor=#B3B3B3;" parent="WIyWlLk6GJQsqaUBKTNV-1" vertex="1">
          <mxGeometry x="1054" y="869" width="180" height="90" as="geometry" />
        </mxCell>
        <mxCell id="c0VgluleApERwFTGEEkZ-9" value="&lt;p style=&quot;margin-top: 0pt; margin-bottom: 0pt; margin-left: 0in; direction: ltr; unicode-bidi: embed; word-break: normal;&quot;&gt;&lt;span style=&quot;font-size: 11px;&quot;&gt;I check that my training material is registered in &lt;a href=&quot;https://tess.elixir-europe.org/materials&quot;&gt;TeSS&lt;/a&gt;&lt;/span&gt;&lt;span style=&quot;font-size: 11px; background-color: initial;&quot;&gt;.&lt;/span&gt;&lt;/p&gt;" style="text;strokeColor=none;fillColor=none;align=left;verticalAlign=middle;spacingLeft=4;spacingRight=4;overflow=hidden;points=[[0,0.5],[1,0.5]];portConstraint=eastwest;rotatable=0;whiteSpace=wrap;html=1;" parent="c0VgluleApERwFTGEEkZ-8" vertex="1">
          <mxGeometry y="40" width="180" height="50" as="geometry" />
        </mxCell>
        <mxCell id="c0VgluleApERwFTGEEkZ-10" style="edgeStyle=orthogonalEdgeStyle;rounded=0;orthogonalLoop=1;jettySize=auto;html=1;exitX=1;exitY=0.5;exitDx=0;exitDy=0;entryX=0;entryY=0.5;entryDx=0;entryDy=0;strokeWidth=2;endSize=6;" parent="WIyWlLk6GJQsqaUBKTNV-1" source="c0VgluleApERwFTGEEkZ-5" target="c0VgluleApERwFTGEEkZ-13" edge="1">
          <mxGeometry relative="1" as="geometry">
            <mxPoint x="1534.65" y="1779" as="targetPoint" />
            <mxPoint x="1534.52" y="1699" as="sourcePoint" />
          </mxGeometry>
        </mxCell>
        <mxCell id="iMHzxxL7FjKLbcnllSLB-20" value="" style="edgeStyle=orthogonalEdgeStyle;rounded=0;orthogonalLoop=1;jettySize=auto;html=1;entryX=0.5;entryY=0;entryDx=0;entryDy=0;strokeWidth=2;endSize=6;" parent="WIyWlLk6GJQsqaUBKTNV-1" source="c0VgluleApERwFTGEEkZ-12" target="c0VgluleApERwFTGEEkZ-8" edge="1">
          <mxGeometry relative="1" as="geometry" />
        </mxCell>
        <mxCell id="c0VgluleApERwFTGEEkZ-12" value="&lt;b&gt;10. SIB Training Zenodo Community&lt;/b&gt;" style="swimlane;fontStyle=0;childLayout=stackLayout;horizontal=1;startSize=40;horizontalStack=0;resizeParent=1;resizeParentMax=0;resizeLast=0;collapsible=1;marginBottom=0;whiteSpace=wrap;html=1;fillColor=#B3B3B3;" parent="WIyWlLk6GJQsqaUBKTNV-1" vertex="1">
          <mxGeometry x="1054" y="690" width="180" height="130" as="geometry" />
        </mxCell>
        <mxCell id="c0VgluleApERwFTGEEkZ-13" value="&lt;p style=&quot;margin-top: 0pt; margin-bottom: 0pt; margin-left: 0in; direction: ltr; unicode-bidi: embed; word-break: normal;&quot;&gt;&lt;span style=&quot;font-size: 11px;&quot;&gt;I add the record of zenodo into the &lt;a href=&quot;https://zenodo.org/communities/sib-training&quot;&gt;SIB Training Community&lt;/a&gt; that&amp;nbsp; collects all courses and papers associated to the SIB Training courses and practices&lt;/span&gt;&lt;/p&gt;&lt;div&gt;&lt;br&gt;&lt;/div&gt;" style="text;strokeColor=none;fillColor=none;align=left;verticalAlign=middle;spacingLeft=4;spacingRight=4;overflow=hidden;points=[[0,0.5],[1,0.5]];portConstraint=eastwest;rotatable=0;whiteSpace=wrap;html=1;" parent="c0VgluleApERwFTGEEkZ-12" vertex="1">
          <mxGeometry y="40" width="180" height="90" as="geometry" />
        </mxCell>
        <mxCell id="iMHzxxL7FjKLbcnllSLB-19" value="" style="edgeStyle=orthogonalEdgeStyle;rounded=0;orthogonalLoop=1;jettySize=auto;html=1;entryX=0.5;entryY=0;entryDx=0;entryDy=0;strokeWidth=2;" parent="WIyWlLk6GJQsqaUBKTNV-1" source="c0VgluleApERwFTGEEkZ-15" target="trNDSJ3Ft7eA7PvFKsts-0" edge="1">
          <mxGeometry relative="1" as="geometry" />
        </mxCell>
        <mxCell id="c0VgluleApERwFTGEEkZ-15" value="&lt;b&gt;6. Glittr&lt;/b&gt;" style="swimlane;fontStyle=0;childLayout=stackLayout;horizontal=1;startSize=40;horizontalStack=0;resizeParent=1;resizeParentMax=0;resizeLast=0;collapsible=1;marginBottom=0;whiteSpace=wrap;html=1;fillColor=#B3B3B3;" parent="WIyWlLk6GJQsqaUBKTNV-1" vertex="1">
          <mxGeometry x="200" y="509" width="180" height="100" as="geometry" />
        </mxCell>
        <mxCell id="c0VgluleApERwFTGEEkZ-16" value="&lt;p style=&quot;margin-top: 0pt; margin-bottom: 0pt; margin-left: 0in; direction: ltr; unicode-bidi: embed; word-break: normal;&quot;&gt;&lt;span style=&quot;font-size: 11px;&quot;&gt;I register my training material in &lt;a href=&quot;https://glittr.org/contribute&quot;&gt;Glittr&lt;/a&gt; manually.&lt;/span&gt;&lt;/p&gt;" style="text;strokeColor=none;fillColor=none;align=left;verticalAlign=middle;spacingLeft=4;spacingRight=4;overflow=hidden;points=[[0,0.5],[1,0.5]];portConstraint=eastwest;rotatable=0;whiteSpace=wrap;html=1;" parent="c0VgluleApERwFTGEEkZ-15" vertex="1">
          <mxGeometry y="40" width="180" height="60" as="geometry" />
        </mxCell>
        <mxCell id="c0VgluleApERwFTGEEkZ-19" value="&lt;span style=&quot;font-weight: 700;&quot;&gt;12. Communication&lt;/span&gt;" style="swimlane;fontStyle=0;childLayout=stackLayout;horizontal=1;startSize=40;horizontalStack=0;resizeParent=1;resizeParentMax=0;resizeLast=0;collapsible=1;marginBottom=0;whiteSpace=wrap;html=1;fillColor=#B3B3B3;" parent="WIyWlLk6GJQsqaUBKTNV-1" vertex="1">
          <mxGeometry x="790" y="864" width="180" height="100" as="geometry" />
        </mxCell>
        <mxCell id="c0VgluleApERwFTGEEkZ-20" value="&lt;p style=&quot;margin-top: 0pt; margin-bottom: 0pt; margin-left: 0in; direction: ltr; unicode-bidi: embed; word-break: normal;&quot;&gt;&lt;span style=&quot;font-size: 11px;&quot;&gt;I promote my training material in social networks and other communication channels&amp;nbsp;&lt;/span&gt;&lt;span style=&quot;background-color: initial; font-size: 7.63889px;&quot;&gt;&lt;sup style=&quot;&quot;&gt;6&lt;/sup&gt;&lt;/span&gt;&lt;span style=&quot;background-color: initial; font-size: 11px;&quot;&gt;.&lt;/span&gt;&lt;/p&gt;" style="text;strokeColor=none;fillColor=none;align=left;verticalAlign=middle;spacingLeft=4;spacingRight=4;overflow=hidden;points=[[0,0.5],[1,0.5]];portConstraint=eastwest;rotatable=0;whiteSpace=wrap;html=1;" parent="c0VgluleApERwFTGEEkZ-19" vertex="1">
          <mxGeometry y="40" width="180" height="60" as="geometry" />
        </mxCell>
        <mxCell id="sHfo32fZNC-mHXl1emih-1" style="edgeStyle=orthogonalEdgeStyle;rounded=0;orthogonalLoop=1;jettySize=auto;html=1;exitX=0;exitY=0.5;exitDx=0;exitDy=0;entryX=1;entryY=0.5;entryDx=0;entryDy=0;strokeWidth=2;endSize=6;" parent="WIyWlLk6GJQsqaUBKTNV-1" source="c0VgluleApERwFTGEEkZ-9" target="c0VgluleApERwFTGEEkZ-20" edge="1">
          <mxGeometry relative="1" as="geometry">
            <mxPoint x="1870.8" y="883.5699999999999" as="targetPoint" />
            <Array as="points" />
            <mxPoint x="1779" y="883.5699999999999" as="sourcePoint" />
          </mxGeometry>
        </mxCell>
        <mxCell id="iMHzxxL7FjKLbcnllSLB-24" value="" style="edgeStyle=orthogonalEdgeStyle;rounded=0;orthogonalLoop=1;jettySize=auto;html=1;entryX=0;entryY=0.5;entryDx=0;entryDy=0;exitX=0;exitY=0.5;exitDx=0;exitDy=0;strokeWidth=2;endSize=6;" parent="WIyWlLk6GJQsqaUBKTNV-1" source="sHfo32fZNC-mHXl1emih-2" target="trNDSJ3Ft7eA7PvFKsts-1" edge="1">
          <mxGeometry relative="1" as="geometry">
            <mxPoint x="120" y="345" as="targetPoint" />
          </mxGeometry>
        </mxCell>
        <mxCell id="sHfo32fZNC-mHXl1emih-2" value="&lt;div&gt;The Training material &lt;b&gt;cannot&lt;/b&gt; be&lt;/div&gt;&lt;div&gt;published, only the metadata&lt;/div&gt;&amp;nbsp;" style="rhombus;whiteSpace=wrap;html=1;shadow=0;fontFamily=Helvetica;fontSize=12;align=center;strokeWidth=1;spacing=6;spacingTop=-4;fillColor=#d5e8d4;strokeColor=#82b366;" parent="WIyWlLk6GJQsqaUBKTNV-1" vertex="1">
          <mxGeometry x="200" y="250" width="190" height="190" as="geometry" />
        </mxCell>
        <mxCell id="sHfo32fZNC-mHXl1emih-4" value="&lt;b style=&quot;&quot;&gt;&lt;font color=&quot;#ff8000&quot;&gt;No&lt;/font&gt;&lt;/b&gt;" style="rounded=0;html=1;jettySize=auto;orthogonalLoop=1;fontSize=11;endArrow=block;endFill=0;endSize=6;strokeWidth=2;shadow=0;labelBackgroundColor=none;edgeStyle=orthogonalEdgeStyle;strokeColor=#FF8000;entryX=0.5;entryY=0;entryDx=0;entryDy=0;" parent="WIyWlLk6GJQsqaUBKTNV-1" target="sHfo32fZNC-mHXl1emih-2" edge="1">
          <mxGeometry x="0.0104" y="20" relative="1" as="geometry">
            <mxPoint as="offset" />
            <mxPoint x="294.57" y="250" as="targetPoint" />
            <mxPoint x="294.57" y="145" as="sourcePoint" />
          </mxGeometry>
        </mxCell>
        <mxCell id="sHfo32fZNC-mHXl1emih-7" value="&lt;b style=&quot;&quot;&gt;&lt;font color=&quot;#ff8000&quot;&gt;No&lt;/font&gt;&lt;/b&gt;" style="rounded=0;html=1;jettySize=auto;orthogonalLoop=1;fontSize=11;endArrow=block;endFill=0;endSize=6;strokeWidth=2;shadow=0;labelBackgroundColor=none;edgeStyle=orthogonalEdgeStyle;strokeColor=#FF8000;entryX=0;entryY=0.5;entryDx=0;entryDy=0;exitX=1;exitY=0.5;exitDx=0;exitDy=0;" parent="WIyWlLk6GJQsqaUBKTNV-1" source="MYqOvBCMYpxo-4ECaS3--14" target="JqK_AGXCbZ9T-9h9DLJX-1" edge="1">
          <mxGeometry x="0.0104" y="20" relative="1" as="geometry">
            <mxPoint as="offset" />
            <mxPoint x="1020" y="150" as="targetPoint" />
            <mxPoint x="654.5" y="145" as="sourcePoint" />
          </mxGeometry>
        </mxCell>
        <mxCell id="iMHzxxL7FjKLbcnllSLB-22" value="" style="edgeStyle=orthogonalEdgeStyle;rounded=0;orthogonalLoop=1;jettySize=auto;html=1;entryX=0.5;entryY=0;entryDx=0;entryDy=0;strokeWidth=2;endSize=6;" parent="WIyWlLk6GJQsqaUBKTNV-1" source="sHfo32fZNC-mHXl1emih-8" target="JqK_AGXCbZ9T-9h9DLJX-22" edge="1">
          <mxGeometry relative="1" as="geometry">
            <mxPoint x="575" y="530" as="targetPoint" />
          </mxGeometry>
        </mxCell>
        <mxCell id="sHfo32fZNC-mHXl1emih-8" value="&lt;div&gt;I organize the files of the&amp;nbsp;&lt;/div&gt;&lt;div&gt;Training material in such a&lt;/div&gt;&lt;div&gt;&amp;nbsp;way that they are reusable&amp;nbsp;&lt;/div&gt;&lt;div&gt;and accessible&lt;/div&gt;&lt;div&gt;&lt;br&gt;&lt;/div&gt;" style="rhombus;whiteSpace=wrap;html=1;shadow=0;fontFamily=Helvetica;fontSize=12;align=center;strokeWidth=1;spacing=6;spacingTop=-4;fillColor=#d5e8d4;strokeColor=#82b366;" parent="WIyWlLk6GJQsqaUBKTNV-1" vertex="1">
          <mxGeometry x="480" y="250" width="190" height="190" as="geometry" />
        </mxCell>
        <mxCell id="sHfo32fZNC-mHXl1emih-9" value="&lt;b style=&quot;&quot;&gt;&lt;font color=&quot;#ff8000&quot;&gt;No&lt;/font&gt;&lt;/b&gt;" style="rounded=0;html=1;jettySize=auto;orthogonalLoop=1;fontSize=11;endArrow=block;endFill=0;endSize=6;strokeWidth=2;shadow=0;labelBackgroundColor=none;edgeStyle=orthogonalEdgeStyle;strokeColor=#FF8000;exitX=0.5;exitY=1;exitDx=0;exitDy=0;" parent="WIyWlLk6GJQsqaUBKTNV-1" source="JqK_AGXCbZ9T-9h9DLJX-1" target="sHfo32fZNC-mHXl1emih-8" edge="1">
          <mxGeometry x="0.0104" y="20" relative="1" as="geometry">
            <mxPoint as="offset" />
            <mxPoint x="1044.5" y="255" as="targetPoint" />
            <mxPoint x="1044.5" y="150" as="sourcePoint" />
            <Array as="points" />
          </mxGeometry>
        </mxCell>
        <mxCell id="sHfo32fZNC-mHXl1emih-13" value="&lt;b style=&quot;&quot;&gt;&lt;font color=&quot;#ff8000&quot;&gt;No&lt;/font&gt;&lt;/b&gt;" style="rounded=0;html=1;jettySize=auto;orthogonalLoop=1;fontSize=11;endArrow=block;endFill=0;endSize=6;strokeWidth=2;shadow=0;labelBackgroundColor=none;edgeStyle=orthogonalEdgeStyle;strokeColor=#FF8000;entryX=0.5;entryY=0;entryDx=0;entryDy=0;" parent="WIyWlLk6GJQsqaUBKTNV-1" source="JqK_AGXCbZ9T-9h9DLJX-10" target="JqK_AGXCbZ9T-9h9DLJX-17" edge="1">
          <mxGeometry relative="1" as="geometry">
            <mxPoint x="1525" y="585" as="targetPoint" />
            <mxPoint x="1525" y="320" as="sourcePoint" />
          </mxGeometry>
        </mxCell>
        <mxCell id="sHfo32fZNC-mHXl1emih-15" value="&lt;div style=&quot;&quot;&gt;&lt;b&gt;&lt;span style=&quot;background-color: initial;&quot;&gt;&amp;nbsp;&lt;/span&gt;&lt;sup style=&quot;background-color: initial;&quot;&gt;1&amp;nbsp;&lt;/sup&gt;&lt;span style=&quot;background-color: initial;&quot;&gt;Reasons to make your Training Material Open and FAIR:&lt;/span&gt;&lt;/b&gt;&lt;/div&gt;&lt;div style=&quot;&quot;&gt;See topic in &lt;a href=&quot;https://elixir-europe-training.github.io/ELIXIR-TrP-FAIR-training-handbook/chapters/chapter_01/#initial-considerations-for-applying-fair-principles-to-training-materials&quot;&gt;FAIR training handbook&lt;/a&gt;, SIB website:&amp;nbsp;&lt;a href=&quot;https://www.sib.swiss/training/open-and-fair-training&quot;&gt;Open and FAIR training&lt;/a&gt;,&amp;nbsp;&lt;a href=&quot;https://elixir-europe-training.github.io/ELIXIR-TrP-FAIR-Material-By-Design/&quot;&gt;ELIXIR Training material made FAIR by design&lt;/a&gt;&lt;/div&gt;&lt;div&gt;&lt;br&gt;&lt;/div&gt;" style="rounded=0;whiteSpace=wrap;html=1;fillColor=#fff2cc;strokeColor=#d6b656;" parent="WIyWlLk6GJQsqaUBKTNV-1" vertex="1">
          <mxGeometry x="175" y="850" width="205" height="120" as="geometry" />
        </mxCell>
        <mxCell id="sHfo32fZNC-mHXl1emih-18" value="&lt;div style=&quot;&quot;&gt;&lt;div&gt;&lt;b&gt;&lt;sup&gt;2&lt;/sup&gt; Copyright Gudielines:&lt;/b&gt;&lt;/div&gt;&lt;div&gt;See topic in &lt;a href=&quot;https://zenodo.org/records/5841604&quot;&gt;Copyright Guidelines - How to acknowledge and be acknowledged in training material&lt;/a&gt;.&lt;br&gt;&lt;/div&gt;&lt;/div&gt;" style="rounded=0;whiteSpace=wrap;html=1;fillColor=#fff2cc;strokeColor=#d6b656;" parent="WIyWlLk6GJQsqaUBKTNV-1" vertex="1">
          <mxGeometry x="410" y="854" width="205" height="86" as="geometry" />
        </mxCell>
        <mxCell id="sHfo32fZNC-mHXl1emih-20" value="&lt;div style=&quot;&quot;&gt;&lt;div&gt;&lt;span style=&quot;background-color: initial;&quot;&gt;&lt;b&gt;&lt;sup&gt;3&lt;/sup&gt; Provide a Licence:&lt;/b&gt;&lt;/span&gt;&lt;/div&gt;&lt;div&gt;&lt;div&gt;See topic in &lt;a href=&quot;https://elixir-europe-training.github.io/ELIXIR-TrP-FAIR-training-handbook/chapters/chapter_08/&quot;&gt;FAIR training handbook&lt;/a&gt; and &lt;a href=&quot;https://elixir-europe-training.github.io/ELIXIR-TrP-FAIR-Material-By-Design/chapters/chapter_05/&quot;&gt;ELIXIR Training material made FAIR by design&lt;/a&gt;.&lt;/div&gt;&lt;/div&gt;&lt;/div&gt;" style="rounded=0;whiteSpace=wrap;html=1;fillColor=#fff2cc;strokeColor=#d6b656;" parent="WIyWlLk6GJQsqaUBKTNV-1" vertex="1">
          <mxGeometry x="175" y="980" width="205" height="80" as="geometry" />
        </mxCell>
        <mxCell id="sHfo32fZNC-mHXl1emih-21" value="&lt;div style=&quot;&quot;&gt;&lt;div&gt;&lt;span style=&quot;background-color: initial;&quot;&gt;&lt;b&gt;&lt;sup&gt;4&lt;/sup&gt;&amp;nbsp; .zenodo.json file&lt;/b&gt;&lt;/span&gt;&lt;/div&gt;&lt;div&gt;&lt;div&gt;See topic In the &lt;a href=&quot;https://developers.zenodo.org/#github&quot;&gt;Zenodo Developers documentation&lt;/a&gt;&lt;/div&gt;&lt;div&gt;JSON file to preset the data when publishing a release with zenodo. &lt;br&gt;&lt;/div&gt;&lt;/div&gt;&lt;/div&gt;" style="rounded=0;whiteSpace=wrap;html=1;fillColor=#fff2cc;strokeColor=#d6b656;" parent="WIyWlLk6GJQsqaUBKTNV-1" vertex="1">
          <mxGeometry x="410" y="950" width="205" height="90" as="geometry" />
        </mxCell>
        <UserObject label="&lt;div style=&quot;&quot;&gt;&lt;div&gt;&lt;b&gt;&lt;span style=&quot;background-color: initial;&quot;&gt;&lt;sup&gt;5&lt;/sup&gt; Metadata:&lt;/span&gt;&lt;/b&gt;&lt;/div&gt;&lt;div&gt;More information on providing metadata in &lt;a href=&quot;https://elixir-europe-training.github.io/ELIXIR-TrP-FAIR-training-handbook/chapters/chapter_08/&quot;&gt;FAIR training handbook&lt;/a&gt;&lt;/div&gt;&lt;/div&gt;" linkTarget="_blank" id="sHfo32fZNC-mHXl1emih-22">
          <mxCell style="rounded=0;whiteSpace=wrap;html=1;fillColor=#fff2cc;strokeColor=#d6b656;" parent="WIyWlLk6GJQsqaUBKTNV-1" vertex="1">
            <mxGeometry x="175" y="1070" width="205" height="60" as="geometry" />
          </mxCell>
        </UserObject>
        <mxCell id="sHfo32fZNC-mHXl1emih-23" value="&lt;div style=&quot;&quot;&gt;&lt;div&gt;&lt;b&gt;&lt;span style=&quot;background-color: initial;&quot;&gt;&lt;sup&gt;6&lt;/sup&gt;&amp;nbsp;Communication Channels:&lt;/span&gt;&lt;/b&gt;&lt;/div&gt;&lt;div&gt;&lt;div&gt;- LinkedIn&lt;/div&gt;&lt;/div&gt;&lt;div&gt;- Twitter / X&lt;/div&gt;&lt;div&gt;- Website institute&lt;/div&gt;&lt;div&gt;- Weekly newletters &lt;br&gt;&lt;/div&gt;&lt;div&gt;- ...&lt;br&gt;&lt;/div&gt;&lt;/div&gt;" style="rounded=0;whiteSpace=wrap;html=1;fillColor=#fff2cc;strokeColor=#d6b656;" parent="WIyWlLk6GJQsqaUBKTNV-1" vertex="1">
          <mxGeometry x="410" y="1050" width="205" height="90" as="geometry" />
        </mxCell>
        <mxCell id="iMHzxxL7FjKLbcnllSLB-0" value="&lt;b&gt;1. Make the video materials FAIR&lt;/b&gt;" style="swimlane;fontStyle=0;childLayout=stackLayout;horizontal=1;startSize=40;horizontalStack=0;resizeParent=1;resizeParentMax=0;resizeLast=0;collapsible=1;marginBottom=0;whiteSpace=wrap;html=1;fillColor=#B3B3B3;" parent="WIyWlLk6GJQsqaUBKTNV-1" vertex="1">
          <mxGeometry x="605" y="-230" width="180" height="140" as="geometry" />
        </mxCell>
        <mxCell id="iMHzxxL7FjKLbcnllSLB-1" value="&lt;div&gt;- Add the recordings to youtube&lt;/div&gt;&lt;div&gt;- Add the transcripts and recodings to Zenodo&lt;br&gt;&lt;/div&gt;" style="text;strokeColor=none;fillColor=none;align=left;verticalAlign=middle;spacingLeft=4;spacingRight=4;overflow=hidden;points=[[0,0.5],[1,0.5]];portConstraint=eastwest;rotatable=0;whiteSpace=wrap;html=1;" parent="iMHzxxL7FjKLbcnllSLB-0" vertex="1">
          <mxGeometry y="40" width="180" height="100" as="geometry" />
        </mxCell>
        <mxCell id="iMHzxxL7FjKLbcnllSLB-2" style="edgeStyle=orthogonalEdgeStyle;rounded=0;orthogonalLoop=1;jettySize=auto;html=1;exitX=1;exitY=0.5;exitDx=0;exitDy=0;entryX=0.5;entryY=0;entryDx=0;entryDy=0;strokeWidth=2;endSize=6;" parent="WIyWlLk6GJQsqaUBKTNV-1" source="iMHzxxL7FjKLbcnllSLB-1" target="JqK_AGXCbZ9T-9h9DLJX-1" edge="1">
          <mxGeometry relative="1" as="geometry">
            <mxPoint x="1410" y="240" as="targetPoint" />
            <mxPoint x="1410" y="143" as="sourcePoint" />
          </mxGeometry>
        </mxCell>
      </root>
    </mxGraphModel>
  </diagram>
</mxfile>
